<?xml version="1.0" encoding="UTF-8"?>
<svg version="1.1" xmlns="http://www.w3.org/2000/svg" width="562" height="444">
<path d="M0 0 C1.66956757 -0.0076664 1.66956757 -0.0076664 3.37286377 -0.01548767 C7.03956528 -0.0293496 10.70607819 -0.0284298 14.37280273 -0.02612305 C16.92675343 -0.03001106 19.48070349 -0.03434595 22.03465271 -0.03910828 C27.38168707 -0.04656261 32.72865251 -0.04642311 38.07568359 -0.04101562 C44.24752361 -0.03496988 50.419136 -0.0473078 56.5909372 -0.06858569 C62.54272731 -0.08834662 68.49444704 -0.09137329 74.4462719 -0.08785057 C76.97283399 -0.08836397 79.49939972 -0.09360521 82.02594185 -0.10366249 C85.55653594 -0.11599497 89.0866019 -0.10925444 92.6171875 -0.09765625 C93.65995346 -0.10529999 94.70271942 -0.11294373 95.77708435 -0.12081909 C102.12674869 -0.07470147 106.71491444 0.54857436 111.61889648 4.9621582 C113.34082464 8.50167719 113.5235656 11.49041052 112.74389648 15.2746582 C111.06076508 19.14412526 108.94428325 22.67978764 106.74389648 26.2746582 C103.60361914 31.4539109 100.51327437 36.65434043 97.52514648 41.9230957 C96.9850293 42.86540039 96.44491211 43.80770508 95.88842773 44.77856445 C94.78195009 46.71030096 93.68575055 48.64795723 92.59936523 50.59106445 C92.05924805 51.52563477 91.51913086 52.46020508 90.96264648 53.4230957 C90.48762695 54.26018066 90.01260742 55.09726563 89.52319336 55.9597168 C86.51146152 59.87810885 83.30998015 62.04364015 78.39181519 62.76913452 C77.17366119 62.76628448 75.9555072 62.76343445 74.70043945 62.76049805 C73.68463806 62.76619308 73.68463806 62.76619308 72.64831543 62.77200317 C70.42708874 62.77936646 68.20719281 62.75809243 65.98608398 62.7355957 C64.43482619 62.73320913 62.88356546 62.73230641 61.33230591 62.7328186 C58.08927179 62.72969812 54.84668212 62.7131885 51.60375977 62.6862793 C47.44976845 62.65224355 43.29626342 62.64465278 39.14214897 62.64616966 C35.94222382 62.64562562 32.74240467 62.63465384 29.5425148 62.62016678 C28.01073126 62.61381028 26.47893575 62.60986257 24.94713974 62.60837936 C22.80740677 62.60403724 20.66818689 62.58651908 18.52856445 62.56518555 C17.31200165 62.55756195 16.09543884 62.54993835 14.8420105 62.54208374 C11.79207503 62.27881692 10.19159745 62.0712203 7.74389648 60.2746582 C4.74389648 55.2746582 4.74389648 55.2746582 4.74389648 40.2746582 C27.18389648 40.2746582 49.62389648 40.2746582 72.74389648 40.2746582 C73.40389648 38.6246582 74.06389648 36.9746582 74.74389648 35.2746582 C77.05389648 31.3146582 79.36389648 27.3546582 81.74389648 23.2746582 C54.68389648 22.9446582 27.62389648 22.6146582 -0.25610352 22.2746582 C-0.25610352 42.0746582 -0.25610352 61.8746582 -0.25610352 82.2746582 C18.60679729 82.11645699 18.60679729 82.11645699 37.46923828 81.91430664 C39.83552327 81.90262323 42.2018163 81.89243059 44.56811523 81.8840332 C45.79485962 81.86356934 47.021604 81.84310547 48.28552246 81.82202148 C49.46247681 81.82153809 50.63943115 81.82105469 51.85205078 81.82055664 C53.38094185 81.80723297 53.38094185 81.80723297 54.9407196 81.79364014 C59.11296804 82.50958742 61.59967278 84.76636332 64.11889648 88.0871582 C65.51668186 92.97940701 63.78210485 97.7905998 61.74389648 102.2746582 C61.08389648 102.2746582 60.42389648 102.2746582 59.74389648 102.2746582 C59.63899902 102.82629639 59.53410156 103.37793457 59.42602539 103.94628906 C58.59885807 106.76973026 57.31951079 108.99038952 55.82983398 111.52856445 C54.93458008 113.05900391 54.93458008 113.05900391 54.02124023 114.62036133 C53.3934668 115.6819043 52.76569336 116.74344727 52.11889648 117.8371582 C51.51432617 118.87163086 50.90975586 119.90610352 50.28686523 120.97192383 C46.75583796 126.9837048 43.11390494 132.90396511 39.31494141 138.75024414 C37.64673896 141.43077456 36.15324135 144.16964731 34.68139648 146.9621582 C28.12620608 159.09882372 28.12620608 159.09882372 23.31420898 161.47387695 C18.07536704 162.64889074 12.97068541 162.5627041 7.61889648 162.5246582 C6.55413086 162.53239258 5.48936523 162.54012695 4.39233398 162.5480957 C-14.8623981 162.50136092 -14.8623981 162.50136092 -19.94360352 157.7746582 C-21.63071725 154.56110823 -22.3816104 152.81749243 -22.38549805 149.20800781 C-22.38865021 148.37051498 -22.39180237 147.53302216 -22.39505005 146.67015076 C-22.39302582 145.76491165 -22.39100159 144.85967255 -22.38891602 143.92700195 C-22.38987274 142.99996964 -22.39082947 142.07293732 -22.39181519 141.11781311 C-22.39249628 139.15666638 -22.39064691 137.19551741 -22.38647461 135.234375 C-22.38111933 132.22105893 -22.3864251 129.20789152 -22.39282227 126.19458008 C-22.39216159 124.29288704 -22.39088065 122.39119409 -22.38891602 120.48950195 C-22.39094025 119.58223862 -22.39296448 118.67497528 -22.39505005 117.74021912 C-22.37105729 111.38961198 -22.37105729 111.38961198 -21.25610352 110.2746582 C-18.65421435 110.06674469 -16.11162482 109.95011724 -13.50610352 109.8996582 C-12.43102539 109.84358398 -12.43102539 109.84358398 -11.33422852 109.78637695 C-7.68475529 109.72599964 -5.41663926 110.18068096 -2.26000977 112.02856445 C0.83971498 117.049756 0.27558682 121.81739417 0.05639648 127.5871582 C0.03383789 128.70928711 0.0112793 129.83141602 -0.01196289 130.98754883 C-0.07074891 133.75049179 -0.16042529 136.51274668 -0.25610352 139.2746582 C4.36389648 139.2746582 8.98389648 139.2746582 13.74389648 139.2746582 C14.40389648 137.6246582 15.06389648 135.9746582 15.74389648 134.2746582 C16.66167337 132.66466402 17.61842872 131.07644223 18.60717773 129.5090332 C19.16469727 128.61829102 19.7222168 127.72754883 20.29663086 126.80981445 C21.16771484 125.43116211 21.16771484 125.43116211 22.05639648 124.0246582 C23.20039501 122.20825285 24.34234449 120.39055526 25.48217773 118.5715332 C25.98789307 117.77070313 26.4936084 116.96987305 27.01464844 116.14477539 C28.51598348 113.65293651 29.94322041 111.13996077 31.35197449 108.59527588 C31.80043323 107.7858617 32.24889196 106.97644753 32.71094036 106.14250565 C33.05181588 105.52611599 33.3926914 104.90972633 33.74389648 104.2746582 C31.8249633 104.26918976 31.8249633 104.26918976 29.86726379 104.26361084 C17.81614562 104.22668321 5.76528349 104.16893475 -6.28563976 104.09075546 C-12.48129022 104.05123214 -18.6767975 104.01906734 -24.87255859 104.00366211 C-30.85088541 103.98852773 -36.82881874 103.9541389 -42.8069706 103.90634918 C-45.08870335 103.89150224 -47.37049227 103.8836153 -49.65227318 103.88277435 C-52.84640928 103.88041299 -56.03945063 103.853399 -59.23339844 103.82055664 C-60.17854813 103.82558701 -61.12369781 103.83061737 -62.0974884 103.83580017 C-66.32873145 103.76840878 -68.65402063 103.64417043 -72.32783508 101.38946533 C-75.43886766 97.97747468 -75.31108203 95.41110976 -75.11547852 90.9230957 C-73.41723228 83.71326851 -68.95349276 77.86001795 -64.88647461 71.76879883 C-62.05635532 67.4392842 -59.45106852 62.97606632 -56.81860352 58.5246582 C-47.54849037 42.92770791 -47.54849037 42.92770791 -43.25610352 40.2746582 C-40.87426758 39.93408203 -40.87426758 39.93408203 -38.27172852 39.98168945 C-37.3371582 39.99135742 -36.40258789 40.00102539 -35.43969727 40.01098633 C-34.47161133 40.03612305 -33.50352539 40.06125977 -32.50610352 40.0871582 C-31.03077148 40.10746094 -31.03077148 40.10746094 -29.52563477 40.12817383 C-27.10189937 40.16347095 -24.67928206 40.21277766 -22.25610352 40.2746582 C-22.27705078 39.3367041 -22.29799805 38.39875 -22.31958008 37.43237305 C-22.38799725 33.93227195 -22.43801938 30.43288754 -22.47583008 26.93237305 C-22.49587142 25.42119085 -22.52311257 23.91008548 -22.55786133 22.39916992 C-22.6067146 20.21945177 -22.62914576 18.04076389 -22.64672852 15.8605957 C-22.66767578 14.5513916 -22.68862305 13.2421875 -22.71020508 11.89331055 C-22.16503926 7.54898376 -21.20069695 5.509421 -18.25610352 2.2746582 C-12.22327067 -0.07622733 -6.41383647 -0.01526771 0 0 Z M-43.42089844 78.39526367 C-44.39147199 80.23649672 -44.39147199 80.23649672 -44.25610352 82.2746582 C-36.99610352 82.2746582 -29.73610352 82.2746582 -22.25610352 82.2746582 C-22.25610352 75.6746582 -22.25610352 69.0746582 -22.25610352 62.2746582 C-35.10035904 59.27210496 -38.12227702 68.3135742 -43.42089844 78.39526367 Z " fill="#F6F6F6" transform="translate(254.256103515625,125.725341796875)"/>
<path d="M0 0 C0.495 0.99 0.495 0.99 1 2 C0.67 2.66 0.34 3.32 0 4 C0.99 4.495 0.99 4.495 2 5 C-0.87744268 6.43872134 -3.34565922 6.11937153 -6.56103516 6.11352539 C-7.23432358 6.11367142 -7.907612 6.11381744 -8.6013031 6.1139679 C-10.83058881 6.11327027 -13.05979135 6.10548489 -15.2890625 6.09765625 C-16.83320063 6.09579154 -18.37733934 6.09436789 -19.92147827 6.09336853 C-23.98870472 6.08954754 -28.05589555 6.07972082 -32.12310791 6.06866455 C-36.2721712 6.05844144 -40.42124025 6.05386898 -44.5703125 6.04882812 C-52.71355985 6.03809819 -60.85677139 6.02050476 -69 6 C-68.67 11.28 -68.34 16.56 -68 22 C-68.66 21.34 -69.32 20.68 -70 20 C-70 15.05 -70 10.1 -70 5 C-47.56 5 -25.12 5 -2 5 C-1.34 3.35 -0.68 1.7 0 0 Z " fill="#CCCACC" transform="translate(329,161)"/>
<path d="M0 0 C2.40233858 2.40233858 2.26257468 2.98352302 2.31884766 6.26611328 C2.33871735 7.14687531 2.35858704 8.02763733 2.37905884 8.93508911 C2.39061005 9.88721283 2.40216125 10.83933655 2.4140625 11.8203125 C2.43342865 12.79410858 2.4527948 13.76790466 2.4727478 14.77120972 C2.53264558 17.88905003 2.57896971 21.00692706 2.625 24.125 C2.66317039 26.23569341 2.70222156 28.34637108 2.7421875 30.45703125 C2.83835527 35.63788144 2.92337264 40.81882597 3 46 C0.26578581 43.41400734 -0.22769963 41.30913846 -0.34057617 37.69042969 C-0.34010274 35.93417316 -0.32324488 34.17787061 -0.29296875 32.421875 C-0.28872391 31.4953009 -0.28447906 30.56872681 -0.28010559 29.61407471 C-0.26333322 26.65908566 -0.22568355 23.70478239 -0.1875 20.75 C-0.1724513 18.74480153 -0.15876322 16.73959235 -0.14648438 14.734375 C-0.11343438 9.82265304 -0.06166182 4.91144274 0 0 Z " fill="#9E9D9E" transform="translate(232,237)"/>
<path d="M0 0 C2.0625 0.4375 2.0625 0.4375 4 1 C-0.67895174 3.90853757 -3.93451304 5.12643321 -9.4453125 5.1328125 C-11.06179688 5.13474609 -11.06179688 5.13474609 -12.7109375 5.13671875 C-14.40089844 5.13091797 -14.40089844 5.13091797 -16.125 5.125 C-17.2284375 5.12886719 -18.331875 5.13273437 -19.46875 5.13671875 C-25.73029906 5.12928223 -31.79267741 4.82676813 -38 4 C-38 3.67 -38 3.34 -38 3 C-36.88439697 2.94465088 -35.76879395 2.88930176 -34.61938477 2.83227539 C-30.49494939 2.62640701 -26.37085041 2.41437345 -22.24682617 2.20043945 C-20.459152 2.10857625 -18.67139015 2.01840334 -16.88354492 1.92993164 C-14.3192512 1.80274722 -11.75533037 1.6695609 -9.19140625 1.53515625 C-8.3872377 1.49656998 -7.58306915 1.4579837 -6.75453186 1.41822815 C-3.07060288 1.54860816 -3.07060288 1.54860816 0 0 Z " fill="#8F8C8B" transform="translate(278,283)"/>
<path d="M0 0 C2.0625 0.4375 2.0625 0.4375 4 1 C2 3 2 3 -1.6953125 3.1953125 C-3.17200108 3.182009 -4.64862358 3.15814835 -6.125 3.125 C-6.87910156 3.11597656 -7.63320313 3.10695313 -8.41015625 3.09765625 C-10.27357254 3.0740687 -12.13682593 3.03819719 -14 3 C-14 2.67 -14 2.34 -14 2 C-13.07316406 1.93941406 -12.14632813 1.87882812 -11.19140625 1.81640625 C-9.39509766 1.69072266 -9.39509766 1.69072266 -7.5625 1.5625 C-5.77005859 1.44068359 -5.77005859 1.44068359 -3.94140625 1.31640625 C-1.11429756 1.32343886 -1.11429756 1.32343886 0 0 Z " fill="#C6C2C2" transform="translate(278,283)"/>
<path d="M0 0 C3.52032428 3.52032428 3.73502079 5.14204781 4 10 C3.34 10.66 2.68 11.32 2 12 C1.34 8.04 0.68 4.08 0 0 Z " fill="#A7A7A7" transform="translate(315,211)"/>
</svg>
