<?xml version="1.0" encoding="UTF-8"?>
<svg version="1.1" xmlns="http://www.w3.org/2000/svg" width="563" height="443">
<path d="M0 0 C1.02335449 -0.00997513 2.04670898 -0.01995026 3.10107422 -0.03022766 C4.21805695 -0.03089233 5.33503967 -0.03155701 6.48587036 -0.03224182 C7.66675232 -0.04056534 8.84763428 -0.04888885 10.06430054 -0.0574646 C13.2999325 -0.07743067 16.53541521 -0.08820501 19.77110052 -0.09329104 C21.79402755 -0.09693742 23.81692994 -0.10317891 25.83984756 -0.11029243 C32.90122818 -0.13477776 39.96253541 -0.14783694 47.0239563 -0.15138245 C53.59972252 -0.15501759 60.17502196 -0.18491319 66.75064552 -0.22678703 C72.40174481 -0.26150818 78.05268952 -0.27693119 83.70389473 -0.27762848 C87.07670623 -0.27842066 90.44904201 -0.28713089 93.82174301 -0.31562614 C97.58520004 -0.34245485 101.34736681 -0.33773894 105.11087036 -0.32521057 C106.22380463 -0.34004486 107.33673889 -0.35487915 108.48339844 -0.37016296 C116.9105454 -0.29020173 116.9105454 -0.29020173 120.58428955 2.59677124 C122.93625321 5.28385243 124.16242305 7.17499899 124.34573364 10.79368591 C122.77999791 20.08566899 116.02018298 29.02598078 110.86184692 36.74339294 C109.18399348 39.25539186 107.88930464 41.38953542 106.92776489 44.27415466 C106.26776489 44.27415466 105.60776489 44.27415466 104.92776489 44.27415466 C104.84010864 44.98184998 104.75245239 45.68954529 104.66213989 46.41868591 C103.77071138 49.88482549 102.27636019 52.07016904 100.17776489 54.96165466 C99.50229614 55.91427185 98.82682739 56.86688904 98.13088989 57.84837341 C95.01421828 61.2800278 92.3801478 62.1570261 87.77859497 62.52812195 C86.00585205 62.53050873 86.00585205 62.53050873 84.19729614 62.53294373 C83.54135468 62.53644836 82.88541321 62.539953 82.20959473 62.54356384 C80.05304206 62.55232737 77.89682058 62.54655126 75.74026489 62.53977966 C74.23481178 62.54112786 72.7293591 62.54306969 71.22390747 62.545578 C68.07339317 62.54852197 64.92299251 62.54425508 61.77249146 62.53489685 C57.7407883 62.52350269 53.70935147 62.53006606 49.67765808 62.54204178 C46.57036342 62.54928005 43.46313155 62.54696342 40.35583496 62.54178619 C38.86952686 62.54045514 37.38321299 62.54207831 35.89691162 62.5467453 C33.81719937 62.55184299 31.73791421 62.54405528 29.65823364 62.53294373 C28.47640503 62.53135254 27.29457642 62.52976135 26.07693481 62.52812195 C22.95623711 62.27645083 20.7416688 61.60553065 17.92776489 60.27415466 C17.92776489 59.61415466 17.92776489 58.95415466 17.92776489 58.27415466 C16.44276489 57.77915466 16.44276489 57.77915466 14.92776489 57.27415466 C14.92776489 51.99415466 14.92776489 46.71415466 14.92776489 41.27415466 C37.36776489 40.94415466 59.80776489 40.61415466 82.92776489 40.27415466 C84.90776489 36.64415466 86.88776489 33.01415466 88.92776489 29.27415466 C90.90776489 25.80915466 90.90776489 25.80915466 92.92776489 22.27415466 C64.87776489 22.27415466 36.82776489 22.27415466 7.92776489 22.27415466 C8.42276489 34.64915466 8.42276489 34.64915466 8.92776489 47.27415466 C9.00723289 51.92770704 9.07101638 56.56056841 9.05276489 61.21165466 C9.05663208 62.25515076 9.06049927 63.29864685 9.06448364 64.37376404 C9.05650105 70.73988463 8.61041309 76.94732441 7.92776489 83.27415466 C9.01984505 83.26416191 9.01984505 83.26416191 10.13398743 83.25396729 C17.00481889 83.19378467 23.87561081 83.14814393 30.7466383 83.11871815 C34.27888955 83.10308124 37.81092248 83.08187966 41.3430481 83.0478363 C45.40646426 83.00891863 49.4696521 82.99442919 53.53323364 82.98118591 C54.79798019 82.96570206 56.06272675 82.9502182 57.36579895 82.93426514 C58.54664566 82.93403854 59.72749237 82.93381195 60.94412231 82.93357849 C61.98114792 82.92691666 63.01817352 82.92025482 64.08662415 82.91339111 C67.41120172 83.33554071 69.24670709 84.28962703 71.92776489 86.27415466 C74.78469314 90.55954703 74.58942987 94.24399707 73.92776489 99.27415466 C72.8184364 102.23051509 71.20950601 104.67838232 69.42776489 107.27415466 C68.42282674 108.82687271 67.41899089 110.38030453 66.41604614 111.93431091 C65.86255493 112.77622986 65.30906372 113.6181488 64.73880005 114.48558044 C61.62936041 119.2733965 58.65102264 124.14254674 55.66409302 129.00730896 C54.64327536 130.66613766 53.61569057 132.32079599 52.58792114 133.97532654 C48.93312018 139.88343607 45.44747423 145.84095087 42.17141724 151.96775818 C39.46210531 156.99227128 37.27537979 160.75408665 31.92776489 163.27415466 C29.04956412 163.56175768 26.3958021 163.69532438 23.52151489 163.67259216 C22.31803406 163.67689743 22.31803406 163.67689743 21.09024048 163.68128967 C19.39919323 163.68332505 17.70812216 163.67783207 16.01712036 163.66526794 C13.43601592 163.64920601 10.85647717 163.6651337 8.27542114 163.68431091 C6.62828229 163.68232839 4.9811444 163.67848452 3.33401489 163.67259216 C2.56617676 163.67866486 1.79833862 163.68473755 1.00723267 163.69099426 C-3.52787864 163.63177977 -6.48735491 163.11287956 -10.07223511 160.27415466 C-15.8282551 151.64012468 -13.03827333 135.20334699 -12.69723511 125.27415466 C-12.65429321 124.01482117 -12.61135132 122.75548767 -12.56710815 121.45799255 C-12.20253186 112.40445142 -12.20253186 112.40445142 -11.07223511 111.27415466 C-8.99179798 111.14780043 -6.90647299 111.09833761 -4.82223511 111.08665466 C-3.68270386 111.07247498 -2.54317261 111.05829529 -1.36911011 111.04368591 C1.87278787 111.27031148 4.05748171 111.7813979 6.92776489 113.27415466 C8.26882894 115.95628277 8.14226908 118.15813498 8.24417114 121.15696716 C8.28606567 122.32356873 8.32796021 123.49017029 8.37112427 124.69212341 C8.41044067 125.91544373 8.44975708 127.13876404 8.49026489 128.39915466 C8.53344849 129.63020935 8.57663208 130.86126404 8.62112427 132.12962341 C8.72745112 135.17765979 8.82813461 138.22589205 8.92776489 141.27415466 C13.54776489 141.60415466 18.16776489 141.93415466 22.92776489 142.27415466 C23.58776489 140.62415466 24.24776489 138.97415466 24.92776489 137.27415466 C25.61910137 135.82840356 26.32641785 134.39013719 27.05276489 132.96165466 C27.40596802 132.26427185 27.75917114 131.56688904 28.12307739 130.84837341 C28.38862427 130.32888123 28.65417114 129.80938904 28.92776489 129.27415466 C29.58776489 129.27415466 30.24776489 129.27415466 30.92776489 129.27415466 C31.23713989 128.06759216 31.23713989 128.06759216 31.55276489 126.83665466 C33.02414749 123.02443613 34.9305366 120.11844761 37.29495239 116.81321716 C38.70929122 114.61388646 39.87393732 112.4548754 41.02981567 110.11546326 C41.38633209 109.39587433 41.74284851 108.6762854 42.11016846 107.93489075 C42.37997528 107.38684784 42.6497821 106.83880493 42.92776489 106.27415466 C41.67575287 106.26828842 40.42374084 106.26242218 39.13378906 106.25637817 C27.33318315 106.19915849 15.53276166 106.12640056 3.73234367 106.03843975 C-2.33433834 105.99371757 -8.40095291 105.9544653 -14.46774292 105.92771912 C-20.32283151 105.9017049 -26.17766081 105.8613153 -32.03258896 105.8109684 C-34.26604868 105.79428705 -36.49955326 105.78278069 -38.73306656 105.77654076 C-41.86218683 105.76691372 -44.99064185 105.73887016 -48.11959839 105.70652771 C-49.04245132 105.7079628 -49.96530426 105.70939789 -50.91612244 105.71087646 C-56.03045952 105.63614626 -59.66988003 105.17173963 -64.07223511 102.27415466 C-66.41779379 98.9449746 -67.11968756 97.09765243 -66.88473511 93.02024841 C-65.95984789 88.75598474 -64.3988166 85.76127897 -62.13473511 82.08665466 C-58.92878547 76.77664648 -58.92878547 76.77664648 -56.07223511 71.27415466 C-55.41223511 71.27415466 -54.75223511 71.27415466 -54.07223511 71.27415466 C-53.98200073 70.75079529 -53.89176636 70.22743591 -53.79879761 69.68821716 C-52.81217448 66.41008224 -51.15787108 63.59124124 -49.44723511 60.64915466 C-49.09185669 60.03394958 -48.73647827 59.41874451 -48.37033081 58.78489685 C-40.07573835 44.60982349 -40.07573835 44.60982349 -35.07223511 41.27415466 C-32.71212769 40.95530701 -32.71212769 40.95530701 -29.96676636 40.86009216 C-29.08093872 40.82448181 -28.19511108 40.78887146 -27.28244019 40.75218201 C-26.16119751 40.71818298 -25.03995483 40.68418396 -23.88473511 40.64915466 C-20.31661011 40.52540466 -16.74848511 40.40165466 -13.07223511 40.27415466 C-12.74223511 28.72415466 -12.41223511 17.17415466 -12.07223511 5.27415466 C-11.41223511 5.27415466 -10.75223511 5.27415466 -10.07223511 5.27415466 C-9.74223511 4.28415466 -9.41223511 3.29415466 -9.07223511 2.27415466 C-6.06481784 0.25765134 -3.5682056 0.0186829 0 0 Z M-25.07223511 62.27415466 C-25.40223511 63.59415466 -25.73223511 64.91415466 -26.07223511 66.27415466 C-26.73223511 66.27415466 -27.39223511 66.27415466 -28.07223511 66.27415466 C-28.31457886 66.78204529 -28.55692261 67.28993591 -28.80661011 67.81321716 C-30.46783699 71.2251216 -32.13208421 74.48133358 -34.32223511 77.58665466 C-36.34507169 80.15864572 -36.34507169 80.15864572 -36.07223511 83.27415466 C-32.25975085 83.30302702 -28.44729441 83.32090958 -24.63473511 83.33665466 C-23.54612183 83.34503357 -22.45750854 83.35341248 -21.33590698 83.36204529 C-19.784198 83.36687927 -19.784198 83.36687927 -18.20114136 83.37181091 C-17.24280396 83.37704773 -16.28446655 83.38228455 -15.29708862 83.38768005 C-13.09938171 83.52468596 -13.09938171 83.52468596 -12.07223511 82.27415466 C-11.98554079 80.78543607 -11.96520017 79.29270967 -11.97457886 77.80149841 C-11.97941284 76.45281677 -11.97941284 76.45281677 -11.98434448 75.07688904 C-11.99272339 74.13136169 -12.00110229 73.18583435 -12.00973511 72.21165466 C-12.01424683 71.26226013 -12.01875854 70.3128656 -12.02340698 69.33470154 C-12.03523383 66.98115935 -12.05316989 64.62764935 -12.07223511 62.27415466 C-16.36223511 62.27415466 -20.65223511 62.27415466 -25.07223511 62.27415466 Z " fill="#0A0A0A" transform="translate(248.07223510742188,123.72584533691406)"/>
<path d="M0 0 C29.37 0 58.74 0 89 0 C89 0.66 89 1.32 89 2 C88.34 2 87.68 2 87 2 C86.67 2.66 86.34 3.32 86 4 C86 3.34 86 2.68 86 2 C57.95 2 29.9 2 1 2 C1 8.93 1 15.86 1 23 C0.67 23 0.34 23 0 23 C0 15.41 0 7.82 0 0 Z " fill="#635F65" transform="translate(255,144)"/>
</svg>
